<?xml version="1.0" encoding="utf-8"?>
<!-- Generator: Adobe Illustrator 23.0.2, SVG Export Plug-In . SVG Version: 6.00 Build 0)  -->
<svg version="1.1" id="レイヤー_1" xmlns="http://www.w3.org/2000/svg" xmlns:xlink="http://www.w3.org/1999/xlink" x="0px"
	 y="0px" viewBox="0 0 523.8 161.7" style="enable-background:new 0 0 523.8 161.7;" xml:space="preserve">
<style type="text/css">
	.st0{fill:#003595;}
</style>
<g id="XMLID_1_">
	<path id="XMLID_21_" class="st0" d="M133.9,114.6c2.6-2.9,5.1-5.9,7.4-8.8c14-16.9,21.9-33,24.4-49.2c2.3-15.2-1.6-29.9-10.7-40.5
		C146.7,6.4,134.5,1,120.9,1c-13.7,0-25.8,5.4-34.2,15.1c-1,1.2-2,2.5-2.9,3.8c-0.9-1.3-1.9-2.6-2.9-3.8C72.4,6.4,60.3,1,46.6,1
		C32.9,1,20.8,6.4,12.4,16.1C3.3,26.7-0.6,41.5,1.8,56.7c2.5,16.1,10.5,32.2,24.4,49.2c2.4,2.9,4.9,5.8,7.4,8.8
		c-9.1,9.7-19.2,19.7-30.7,30.4l-1.3,1.2l13.1,14.1l1.3-1.2c11.4-10.6,21.4-20.5,30.6-30.2c9.2,9.7,19.2,19.6,30.6,30.2
		c1.8,1.7,4.1,2.6,6.6,2.6c2.4,0,4.8-0.9,6.6-2.6c11.4-10.6,21.4-20.5,30.6-30.2c9.2,9.7,19.2,19.6,30.6,30.2l1.3,1.2l13.1-14.1
		l-1.3-1.2C153.1,134.3,143,124.3,133.9,114.6z M101.3,28.7c4.7-5.5,11.5-8.4,19.6-8.4s14.8,2.9,19.6,8.4c5.4,6.3,7.7,15.5,6.3,25.1
		c-1.9,12.6-8.6,25.6-20.2,39.8c-1.8,2.2-3.7,4.4-5.6,6.6c-1.9-2.2-3.8-4.4-5.6-6.6C103.6,79.4,97,66.4,95.1,53.7
		C93.6,44.2,95.9,35,101.3,28.7z M107.9,114.6c-7.4,7.8-15.3,15.8-24.1,24.2c-8.9-8.4-16.8-16.4-24.1-24.2c2.5-2.9,5-5.9,7.4-8.8
		c7.1-8.7,12.6-16.9,16.7-25.2c4.1,8.3,9.6,16.6,16.7,25.2C102.8,108.7,105.3,111.7,107.9,114.6z M27.1,28.7
		c4.7-5.5,11.5-8.4,19.6-8.4c8.1,0,14.8,2.9,19.6,8.4c5.4,6.3,7.7,15.5,6.3,25.1c-1.9,12.6-8.6,25.6-20.2,39.8
		c-1.8,2.2-3.7,4.4-5.6,6.6c-1.9-2.2-3.8-4.4-5.6-6.6C29.4,79.4,22.7,66.4,20.8,53.7C19.3,44.2,21.6,35,27.1,28.7z"/>
</g>
<g id="XMLID_368_">
	<g id="XMLID_376_">
		<path id="XMLID_1454_" class="st0" d="M496.8,44.7h-64.4c-2,0-3.7,1.6-3.7,3.7v10.3c0,2,1.6,3.7,3.7,3.7H493
			c4.9,0,7.1,2.3,7.1,7.3v43.1c0,5.1-2.2,7.3-7.1,7.3h-60.6c-2,0-3.7,1.6-3.7,3.7v10.3c0,2,1.6,3.7,3.7,3.7h64.4
			c17.8,0,24.2-12.8,24.2-23.7V68.4C521,57.5,514.6,44.7,496.8,44.7z"/>
	</g>
	<g id="XMLID_372_">
		<path id="XMLID_375_" class="st0" d="M302.3,122.5l-60.6-60.2c-4.5-4.4-10-7.1-15.5-7.4c0,0,0,0,0,0c-6.5-0.3-12.8,2.4-18.3,7.9
			l-23.5,23.6c-0.7,0.7-1.1,1.6-1.1,2.6c0,1,0.4,1.9,1.1,2.6l9.1,8.8c1.4,1.4,3.7,1.4,5.1-0.1l20.8-20.9c2.3-2.3,4-2.6,5-2.6l0.3,0
			c1.6,0,3.2,0.9,5,2.7l58,57.9c0.7,0.7,1.6,1.1,2.6,1.1c0,0,0,0,0,0c1,0,1.9-0.4,2.6-1.1l9.5-9.6c0.7-0.7,1.1-1.6,1.1-2.6
			C303.4,124.1,303,123.2,302.3,122.5z"/>
		<path id="XMLID_374_" class="st0" d="M271.3,43.5H261c-2,0-3.7,1.6-3.7,3.7V66c0,2,1.6,3.7,3.7,3.7h10.3c2,0,3.7-1.6,3.7-3.7V47.2
			C274.9,45.2,273.3,43.5,271.3,43.5z"/>
		<path id="XMLID_373_" class="st0" d="M294.1,43.5h-10.3c-2,0-3.7,1.6-3.7,3.7V66c0,2,1.6,3.7,3.7,3.7h10.3c2,0,3.7-1.6,3.7-3.7
			V47.2C297.8,45.2,296.2,43.5,294.1,43.5z"/>
	</g>
	<g id="XMLID_369_">
		<path id="XMLID_371_" class="st0" d="M413,95.6h-10.3c-2,0-3.7,1.6-3.7,3.7v14.3c0,4.9-2.3,7.1-7.3,7.1h-9.1V44.3
			c0-2-1.6-3.7-3.7-3.7h-13.5c-2,0-3.7,1.6-3.7,3.7v93.7c0,2,1.6,3.7,3.7,3.7h27.5c10.9,0,23.7-6.3,23.7-24.2V99.3
			C416.6,97.3,415,95.6,413,95.6z"/>
		<path id="XMLID_370_" class="st0" d="M344.8,40.6h-13.5c-2,0-3.7,1.6-3.7,3.7v61.2c0,6-0.8,10.4-2.3,13.1c-2.3,4-4.4,6.2-7.5,9.3
			c-1.4,1.4-1.4,3.7,0,5.2l8.7,8.8c0.7,0.7,1.6,1.1,2.6,1.1h0c1,0,1.9-0.4,2.6-1.1c4.3-4.3,9.2-9.2,12.6-15
			c3.4-5.9,4.1-12.5,4.1-20.4V44.3C348.4,42.2,346.8,40.6,344.8,40.6z"/>
	</g>
</g>
</svg>
