<svg xmlns="http://www.w3.org/2000/svg" viewBox="0 0 519.89 160.8"><defs><style>.cls-1{fill:#fff;}</style></defs><title>logo_wh</title><g id="レイヤー_2" data-name="レイヤー 2"><g id="レイヤー_1-2" data-name="レイヤー 1"><path class="cls-1" d="M132.79,113.6c2.6-2.9,5.1-5.9,7.4-8.8,14-16.9,21.9-33,24.4-49.2,2.3-15.2-1.6-29.9-10.7-40.5C145.59,5.4,133.39,0,119.79,0S94,5.4,85.59,15.1c-1,1.2-2,2.5-2.9,3.8-.9-1.3-1.9-2.6-2.9-3.8C71.29,5.4,59.19,0,45.49,0s-25.8,5.4-34.2,15.1C2.19,25.7-1.71,40.5.69,55.7c2.5,16.1,10.5,32.2,24.4,49.2,2.4,2.9,4.9,5.8,7.4,8.8-9.1,9.7-19.2,19.7-30.7,30.4l-1.3,1.2,13.1,14.1,1.3-1.2c11.4-10.6,21.4-20.5,30.6-30.2,9.2,9.7,19.2,19.6,30.6,30.2a9.47,9.47,0,0,0,6.6,2.6,9.65,9.65,0,0,0,6.6-2.6c11.4-10.6,21.4-20.5,30.6-30.2,9.2,9.7,19.2,19.6,30.6,30.2l1.3,1.2,13.1-14.1-1.3-1.2C152,133.3,141.89,123.3,132.79,113.6Zm-32.6-85.9c4.7-5.5,11.5-8.4,19.6-8.4s14.8,2.9,19.6,8.4c5.4,6.3,7.7,15.5,6.3,25.1-1.9,12.6-8.6,25.6-20.2,39.8-1.8,2.2-3.7,4.4-5.6,6.6-1.9-2.2-3.8-4.4-5.6-6.6C102.49,78.4,95.89,65.4,94,52.7,92.49,43.2,94.79,34,100.19,27.7Zm6.6,85.9c-7.4,7.8-15.3,15.8-24.1,24.2-8.9-8.4-16.8-16.4-24.1-24.2,2.5-2.9,5-5.9,7.4-8.8a133.73,133.73,0,0,0,16.7-25.2,130.62,130.62,0,0,0,16.7,25.2C101.69,107.7,104.19,110.7,106.79,113.6ZM26,27.7c4.7-5.5,11.5-8.4,19.6-8.4s14.8,2.9,19.6,8.4c5.4,6.3,7.7,15.5,6.3,25.1-1.9,12.6-8.6,25.6-20.2,39.8-1.8,2.2-3.7,4.4-5.6,6.6-1.9-2.2-3.8-4.4-5.6-6.6-11.8-14.2-18.5-27.2-20.4-39.9C18.19,43.2,20.49,34,26,27.7Z"/><path class="cls-1" d="M495.69,43.7h-64.4a3.69,3.69,0,0,0-3.7,3.7V57.7a3.69,3.69,0,0,0,3.7,3.7h60.6c4.9,0,7.1,2.3,7.1,7.3v43.1c0,5.1-2.2,7.3-7.1,7.3h-60.6a3.69,3.69,0,0,0-3.7,3.7v10.3a3.69,3.69,0,0,0,3.7,3.7h64.4c17.8,0,24.2-12.8,24.2-23.7V67.4C519.89,56.5,513.49,43.7,495.69,43.7Z"/><path class="cls-1" d="M301.19,121.5l-60.6-60.2c-4.5-4.4-10-7.1-15.5-7.4h0c-6.5-.3-12.8,2.4-18.3,7.9l-23.5,23.6a3.62,3.62,0,0,0,0,5.2l9.1,8.8a3.53,3.53,0,0,0,5.1-.1l20.8-20.9c2.3-2.3,4-2.6,5-2.6h.3c1.6,0,3.2.9,5,2.7l58,57.9a3.63,3.63,0,0,0,2.6,1.1h0a3.63,3.63,0,0,0,2.6-1.1l9.5-9.6a3.63,3.63,0,0,0,1.1-2.6A4.22,4.22,0,0,0,301.19,121.5Z"/><path class="cls-1" d="M270.19,42.5h-10.3a3.69,3.69,0,0,0-3.7,3.7V65a3.69,3.69,0,0,0,3.7,3.7h10.3a3.69,3.69,0,0,0,3.7-3.7V46.2A3.83,3.83,0,0,0,270.19,42.5Z"/><path class="cls-1" d="M293,42.5h-10.3a3.69,3.69,0,0,0-3.7,3.7V65a3.69,3.69,0,0,0,3.7,3.7H293a3.69,3.69,0,0,0,3.7-3.7V46.2A3.69,3.69,0,0,0,293,42.5Z"/><path class="cls-1" d="M411.89,94.6h-10.3a3.69,3.69,0,0,0-3.7,3.7v14.3c0,4.9-2.3,7.1-7.3,7.1h-9.1V43.3a3.69,3.69,0,0,0-3.7-3.7h-13.5a3.69,3.69,0,0,0-3.7,3.7V137a3.69,3.69,0,0,0,3.7,3.7h27.5c10.9,0,23.7-6.3,23.7-24.2V98.3A3.67,3.67,0,0,0,411.89,94.6Z"/><path class="cls-1" d="M343.69,39.6h-13.5a3.69,3.69,0,0,0-3.7,3.7v61.2c0,6-.8,10.4-2.3,13.1a40.28,40.28,0,0,1-7.5,9.3,3.74,3.74,0,0,0,0,5.2l8.7,8.8A3.63,3.63,0,0,0,328,142h0a3.63,3.63,0,0,0,2.6-1.1c4.3-4.3,9.2-9.2,12.6-15s4.1-12.5,4.1-20.4V43.3A3.61,3.61,0,0,0,343.69,39.6Z"/></g></g></svg>