<?xml version="1.0" encoding="utf-8"?>
<!-- Generator: Adobe Illustrator 23.0.2, SVG Export Plug-In . SVG Version: 6.00 Build 0)  -->
<svg version="1.1" id="レイヤー_1" xmlns="http://www.w3.org/2000/svg" xmlns:xlink="http://www.w3.org/1999/xlink" x="0px"
	 y="0px" viewBox="0 0 269 23.7" style="enable-background:new 0 0 269 23.7;" xml:space="preserve">
<style type="text/css">
	.st0{fill:#1C1D1D;}
</style>
<g>
	<path class="st0" d="M9,13.6c2.2-1.3,4.1-1.9,5.7-1.9c1.3,0,2.3,0.3,3.2,1c0.8,0.7,1.2,1.5,1.2,2.5c0,1.2-0.5,2.1-1.4,2.8
		c-0.8,0.5-1.7,0.8-2.7,0.8c-1.6,0-3-0.6-4.2-1.8c-0.1-0.1-0.1-0.2-0.1-0.3c0-0.1,0.1-0.2,0.2-0.2c0.1,0,0.2,0,0.3,0.1
		c0.9,0.8,2.1,1.1,3.4,1.1c0.9,0,1.7-0.3,2.3-0.9c0.5-0.5,0.8-1.2,0.8-2c0-0.8-0.4-1.4-1.1-1.9c-0.6-0.4-1.3-0.6-2-0.6
		c-0.8,0-1.8,0.2-2.8,0.7C11,13.5,10.1,14,9,14.7c0,0.4,0,0.9,0,1.5c0,0.8,0.1,1.3,0.1,1.5l0,0.9c0,0.5-0.1,1-0.2,1.4
		c-0.2,0.5-0.4,0.8-0.7,0.8c-0.3,0-0.5-0.1-0.6-0.4c-0.2-0.3-0.4-0.7-0.8-1c-0.5-0.4-1.2-1-2.2-1.6C4.3,18,4.1,18.2,4,18.3
		c-0.3,0.3-0.5,0.4-0.8,0.4c-0.3,0-0.7-0.3-1.1-0.8c-0.3-0.4-0.4-0.7-0.4-1c0-0.5,0.1-0.7,0.3-0.7c0.1,0,0.2,0.1,0.3,0.3
		c0.2,0.4,0.4,0.6,0.7,0.6c0.2,0,0.4-0.1,0.6-0.2c0.8-0.4,1.6-1,2.5-1.5c1.1-0.7,1.7-1.1,1.9-1.2V9.1C6.7,9.4,5.8,9.5,5.4,9.5
		c-0.9,0-1.7-0.4-2.2-1.3C3,7.9,2.9,7.6,2.9,7.5c0-0.2,0.1-0.3,0.2-0.3c0.1,0,0.2,0.1,0.3,0.2C3.7,7.8,4,8,4.3,8.2
		c0.3,0.1,0.6,0.2,0.9,0.2c0.7,0,1.6-0.1,2.8-0.4c0-1,0-1.8,0-2.4c0-0.7-0.1-1.1-0.2-1.3C7.7,4,7.3,3.8,6.8,3.8
		c-0.2,0-0.2-0.1-0.2-0.2c0-0.1,0.1-0.3,0.3-0.4C7.1,3.1,7.3,3,7.5,3c0.4,0,0.9,0.1,1.5,0.4c0.6,0.3,0.9,0.6,0.9,1
		c0,0.2-0.1,0.4-0.2,0.6C9.4,5.2,9.2,5.6,9.2,6.1c-0.1,0.5-0.1,1-0.1,1.5c0.8-0.3,1.4-0.5,1.8-0.9c0.2-0.1,0.4-0.3,0.8-0.4
		s0.6-0.2,0.8-0.2c0.6,0,0.8,0.2,0.8,0.6c0,0.3-0.2,0.5-0.6,0.7c-1,0.5-2.3,0.9-3.8,1.4c0,0.6,0,1.4,0,2.4C9,12.3,9,13.1,9,13.6z
		 M7.9,15.3c-0.3,0.2-1.2,0.9-2.8,2c0.6,0.4,1.3,0.7,2,1.1c0.3,0.1,0.5,0.2,0.6,0.2c0.1,0,0.2-0.2,0.2-0.6C7.9,16.9,7.9,16,7.9,15.3
		z M17.5,7.1c1,0,1.9,0.3,2.8,1c0.8,0.6,1.2,1.2,1.2,1.9c0,0.4-0.2,0.6-0.6,0.6c-0.1,0-0.2-0.1-0.5-0.2c-0.2-0.1-0.4-0.1-0.6-0.1
		c0,0-0.2,0-0.6,0.1c-0.2,0.1-0.6,0.2-1.1,0.5c-0.1,0-0.2,0-0.3,0c-0.2,0-0.2-0.1-0.2-0.2c0-0.1,0.1-0.3,0.2-0.3
		c0.7-0.4,1.2-0.8,1.5-1c0.1-0.1,0.2-0.2,0.2-0.3c0-0.1,0-0.1-0.1-0.3c-0.5-0.7-1.3-1-2.2-1c-0.5,0-1,0.1-1.4,0.2
		c-0.3,0.1-0.5,0.2-0.5,0.2c-0.1,0-0.2-0.1-0.2-0.2c0-0.1,0.2-0.3,0.5-0.5C16.1,7.3,16.8,7.1,17.5,7.1z"/>
	<path class="st0" d="M28.4,10.4c0.7,0.1,1.3,0.4,1.7,0.7c0.3,0.3,0.5,0.6,0.5,0.9c0,0.2-0.1,0.4-0.3,0.5c-0.1,0.1-0.3,0.2-0.5,0.2
		c-0.3,0-0.5-0.2-0.6-0.5c-0.2-0.7-0.6-1.2-1.2-1.5c-1.1,0.8-2.3,1.4-3.6,1.9c0,0,0,0,0,0c-0.1,0-0.2-0.1-0.2-0.2c0,0,0-0.1,0-0.1
		c1.8-1.1,3.3-2.3,4.5-3.8c0.4-0.6,0.8-1.1,1-1.7h-3.1c-0.4,0-0.9,0-1.5,0.1l-0.2-0.9c0.7,0.1,1.3,0.2,1.8,0.2h15.8
		c0.7-0.8,1-1.1,1.2-1.1c0.1,0,0.6,0.3,1.3,0.9c0.3,0.2,0.5,0.4,0.5,0.6c0,0.1-0.1,0.2-0.3,0.2H30.2c0.7,0.2,1.1,0.4,1.3,0.5
		c0.1,0.1,0.2,0.2,0.2,0.3c0,0.2-0.3,0.3-0.9,0.3c-0.3,0.3-0.5,0.7-0.8,1h3.4c0.4-0.4,0.6-0.6,0.7-0.6c0.1,0,0.4,0.2,1,0.7
		c0.2,0.2,0.3,0.4,0.3,0.6c0,0.2-0.3,0.3-0.8,0.4c-1.2,1.8-2.8,3.1-4.6,4.1c-1.6,0.9-3.6,1.5-5.8,1.9c-0.1,0-0.2-0.1-0.2-0.2
		c0-0.1,0-0.1,0.1-0.1c2.5-0.8,4.5-1.7,6-2.7c1.3-0.9,2.4-2,3.3-3.4h-4C29,9.9,28.7,10.2,28.4,10.4z M38.7,3.1h4.3
		c0.7-0.8,1.1-1.2,1.2-1.2s0.6,0.3,1.3,0.9C45.8,3.1,46,3.3,46,3.4c0,0.2-0.1,0.2-0.3,0.2h-7c0,0.3,0,0.5,0,0.8c0,0.2,0,0.3,0,0.3
		c0,0.4-0.3,0.6-0.9,0.6c-0.4,0-0.6-0.2-0.6-0.5c0,0,0-0.2,0-0.4c0-0.3,0-0.6,0-0.9h-4.7c0,0.3,0,0.5,0,0.9c0,0.2,0,0.3,0,0.4
		c0,0.4-0.3,0.6-0.9,0.6C31.2,5.5,31,5.3,31,5c0,0,0-0.2,0-0.4c0-0.3,0-0.6,0-0.9h-4.7c-0.5,0-1,0-1.6,0.1l-0.3-0.9
		c0.7,0.1,1.3,0.2,1.9,0.2h4.6V2.9c0-0.9,0-1.6-0.1-2.2c1.1,0.1,1.7,0.2,2,0.3c0.2,0.1,0.3,0.2,0.3,0.3c0,0.2-0.3,0.4-0.8,0.6v1.1
		h4.7V3c0-0.7,0-1.5-0.1-2.2c1,0.1,1.7,0.2,2,0.3c0.3,0.1,0.4,0.2,0.4,0.3c0,0.2-0.3,0.4-0.8,0.6V3.1z M38.6,16.7h4.3
		c0.7-0.8,1.1-1.1,1.2-1.1c0.1,0,0.6,0.3,1.3,0.9c0.3,0.3,0.5,0.5,0.5,0.6c0,0.1-0.1,0.2-0.3,0.2h-7v0.4l0.1,4.3
		c0,0.5-0.3,0.7-0.9,0.7c-0.4,0-0.6-0.2-0.6-0.6l0-4.1v-0.7h-4.6c-0.2,1.5-0.9,2.6-1.9,3.5c-1.4,1.1-3.3,1.8-5.7,2.1
		c-0.1,0-0.2-0.1-0.2-0.2c0-0.1,0-0.1,0.1-0.1c2.2-0.6,3.8-1.4,5-2.6c0.8-0.8,1.2-1.7,1.3-2.7h-4.6c-0.5,0-1,0-1.6,0.1l-0.2-0.9
		c0.7,0.1,1.3,0.1,1.8,0.1h4.7c0-0.1,0-0.3,0-0.6c0-0.6,0-1.2-0.1-1.6c1.1,0.2,1.8,0.3,2.1,0.4c0.2,0.1,0.3,0.2,0.3,0.3
		c0,0.2-0.3,0.4-0.8,0.6c0,0.4,0,0.7,0,0.9h4.5c0-0.8,0-1.4-0.1-2c1.5,0.2,2.3,0.4,2.3,0.6c0,0.2-0.2,0.4-0.7,0.6V16.7z M37.9,10.5
		c1.4-0.5,2.5-1.1,3.4-1.7c0.6-0.4,1.1-0.8,1.4-1.2c1,0.8,1.6,1.3,1.6,1.5c0,0.2-0.1,0.2-0.4,0.2c-0.2,0-0.4,0-0.7-0.1
		c-1.5,0.8-3.2,1.4-5.2,1.9V12c0,0.5,0.2,0.8,0.5,0.9c0.3,0.1,0.9,0.2,1.9,0.2c1.1,0,1.9,0,2.4-0.1c0.4-0.1,0.7-0.2,0.9-0.3
		c0.3-0.2,0.6-0.8,1-1.9c0,0,0.1-0.1,0.1-0.1c0.1,0,0.1,0,0.1,0.1c0,0.8,0,1.3,0,1.4c0,0.2,0.1,0.3,0.3,0.4c0.2,0.1,0.4,0.3,0.4,0.5
		c0,0.4-0.4,0.7-1.1,0.9c-0.7,0.2-2.1,0.3-4.2,0.3c-1.5,0-2.5-0.2-3-0.5c-0.4-0.3-0.6-0.8-0.6-1.6l0-2c0-1.4,0-2.4-0.1-3
		c0.9,0.1,1.6,0.2,1.8,0.3c0.2,0.1,0.3,0.2,0.3,0.3c0,0.2-0.2,0.3-0.7,0.5V10.5z"/>
	<path class="st0" d="M60.9,5.8c0-0.2,0-0.6,0-1c0-0.4,0-0.7,0-1c0-1.1-0.1-2-0.2-2.7c1.1,0.1,1.8,0.2,2.2,0.3
		c0.2,0.1,0.3,0.2,0.3,0.3c0,0.2-0.3,0.4-0.8,0.6c0,1.3,0,2.4,0.1,3.4h4.2c0.6-0.8,1-1.1,1.2-1.1S68.4,5,69,5.6
		c0.4,0.3,0.5,0.5,0.5,0.6s-0.1,0.2-0.3,0.2h-6.8c0.1,3,0.5,5.5,1.2,7.5c0.7,2.3,1.9,4.1,3.6,5.6c0.4,0.4,0.7,0.5,0.9,0.5
		c0.2,0,0.7-0.9,1.4-2.7c0-0.1,0.1-0.1,0.1-0.1c0,0,0,0,0.1,0c0.1,0,0.1,0.1,0.1,0.1c-0.2,1.8-0.3,2.8-0.3,2.9
		c0,0.2,0.1,0.4,0.3,0.7c0.1,0.2,0.2,0.4,0.2,0.6c0,0.5-0.3,0.8-0.8,0.8c-0.4,0-0.9-0.2-1.6-0.6c-1.2-0.7-2.2-1.7-3.1-2.9
		c-0.9-1.2-1.6-2.6-2.1-4.2c-0.8-2.3-1.2-5-1.4-8.2H50.7c-0.6,0-1.1,0-1.6,0.1l-0.2-0.9c0.6,0.1,1.2,0.2,1.9,0.2H60.9z M54.2,18
		v-6.7h-2.7c-0.5,0-1,0.1-1.6,0.2l-0.2-1c0.6,0.1,1.2,0.2,1.8,0.2h6.2c0.6-0.8,1-1.1,1.1-1.1c0.2,0,0.6,0.3,1.3,0.9
		c0.3,0.3,0.5,0.5,0.5,0.7c0,0.1-0.1,0.2-0.3,0.2h-4.4v6.3c1.8-0.4,3.4-0.9,4.9-1.5c0,0,0,0,0,0c0.1,0,0.1,0.1,0.1,0.2
		c0,0.1,0,0.1-0.1,0.1c-2.4,1.4-5.7,2.7-10,3.9c-0.1,0.6-0.3,0.8-0.5,0.8c-0.1,0-0.3-0.2-0.4-0.5c-0.1-0.3-0.3-0.9-0.6-1.8
		c0.5,0,1.2-0.1,1.9-0.2C52.3,18.4,53.3,18.2,54.2,18z M64,2.1C64,2,63.9,2,64,2.1c0-0.2,0-0.3,0.1-0.2c1,0.1,1.8,0.4,2.4,0.8
		C67,3,67.2,3.5,67.2,4c0,0.2-0.1,0.4-0.3,0.6c-0.1,0.1-0.3,0.2-0.5,0.2c-0.3,0-0.6-0.2-0.8-0.7C65.3,3.3,64.8,2.6,64,2.1z"/>
	<path class="st0" d="M79.6,7.9c-0.9,0.2-1.8,0.2-2.7,0.2c-0.5,0-1-0.1-1.5-0.4c-0.4-0.2-0.7-0.5-0.9-0.9c-0.1-0.1-0.1-0.2-0.1-0.3
		c0-0.1,0.1-0.2,0.2-0.2c0.1,0,0.2,0,0.4,0.1c0.5,0.4,1.2,0.6,1.9,0.6c0.8,0,1.9-0.1,3.2-0.4c0.3-0.7,0.6-1.5,0.8-2.4
		C81,4.1,81,3.8,81,3.5c0-0.2-0.1-0.4-0.4-0.6c-0.3-0.2-0.6-0.3-0.9-0.4c-0.1,0-0.2-0.1-0.2-0.1c0-0.3,0.3-0.4,0.8-0.4
		c0.5,0,1.1,0.2,1.9,0.6C82.7,2.8,83,3,83,3.3c0,0.2-0.1,0.4-0.3,0.6c-0.2,0.1-0.4,0.4-0.6,1c0,0-0.1,0.3-0.3,0.8
		c-0.1,0.3-0.3,0.6-0.4,0.8c0.6-0.2,1.3-0.4,2-0.8c0.5-0.3,0.9-0.4,1.2-0.4c0.2,0,0.4,0.1,0.5,0.2c0.2,0.1,0.2,0.3,0.2,0.4
		c0,0.3-0.3,0.6-0.8,0.8c-1.2,0.4-2.5,0.7-3.8,1c-1.8,4.2-3.3,7.5-4.5,9.9c-0.1,0.3-0.4,0.5-0.8,0.5c-0.2,0-0.3-0.1-0.5-0.2
		c-0.1-0.1-0.2-0.3-0.2-0.5c0-0.2,0.1-0.4,0.2-0.6C76.7,14,78.2,11,79.6,7.9z M88.1,9.6c-0.6-0.2-1.3-0.3-2.1-0.3
		c-0.4,0-0.9,0-1.3,0.1c0,0-0.1,0-0.1,0c-0.2,0-0.3-0.1-0.3-0.2c0-0.2,0.1-0.3,0.3-0.4c0.6-0.2,1.3-0.3,2-0.3c0.8,0,1.6,0.1,2.4,0.3
		c0.7,0.2,1.3,0.5,1.8,0.8c0.7,0.5,1,0.9,1,1.4c0,0.2-0.1,0.3-0.2,0.4c-0.1,0.1-0.3,0.2-0.4,0.2c-0.3,0-0.5-0.1-0.8-0.4
		c-0.6-0.6-1.3-0.9-2-0.9c-0.7,0-1.2,0.2-1.7,0.7c-0.4,0.4-0.6,0.9-0.6,1.5c0,0.6,0.1,1.4,0.3,2.4c0.1,0.3,0.1,0.7,0.3,1.3
		c0.1,0.4,0.2,0.8,0.2,1c2.2,0.7,3.7,1.4,4.4,2.1c0.3,0.2,0.4,0.5,0.4,0.8c0,0.5-0.2,0.7-0.7,0.7c-0.2,0-0.4-0.1-0.6-0.3
		c-1.3-1-2.4-1.7-3.4-2.1c-0.1,0.9-0.3,1.7-0.8,2.2c-0.6,0.6-1.5,0.9-2.9,0.9c-1.1,0-1.9-0.3-2.5-0.8c-0.5-0.4-0.8-0.9-0.8-1.5
		c0-0.8,0.4-1.4,1.2-1.9c0.6-0.4,1.4-0.6,2.3-0.6c0.9,0,1.6,0.1,2.1,0.2c-0.3-2.3-0.4-3.6-0.4-3.8c0-1,0.3-1.7,0.8-2.3
		c0.4-0.4,1.1-0.8,2-1.1c0.1,0,0.1-0.1,0.1-0.1C88.2,9.6,88.1,9.6,88.1,9.6z M85.8,18c-0.7-0.2-1.4-0.4-2.2-0.4
		c-0.9,0-1.6,0.1-2.1,0.4c-0.5,0.3-0.7,0.6-0.7,1.1c0,0.4,0.2,0.7,0.7,1c0.4,0.2,1,0.3,1.7,0.3c0.9,0,1.6-0.2,2-0.6
		C85.5,19.5,85.8,18.9,85.8,18z"/>
	<path class="st0" d="M106.9,19.7c1-0.3,1.9-0.9,2.5-1.8c0.5-0.8,0.8-1.5,0.8-2.3c0-1.4-0.5-2.4-1.4-3.1c-0.7-0.5-1.5-0.8-2.4-0.8
		c-2,0-3.8,0.8-5.7,2.5c-0.5,0.4-1,1.1-1.7,1.9c-0.1,0.2-0.3,0.3-0.6,0.3c-0.2,0-0.4-0.1-0.6-0.2c-0.2-0.1-0.2-0.3-0.2-0.5
		c0-0.3,0.2-0.6,0.5-0.9c3.4-3.6,6.3-7,8.7-10.2c0.1-0.1,0.1-0.1,0.1-0.2c0-0.1,0-0.1-0.1-0.1c0,0-0.1,0-0.2,0
		c-1.3,0.4-2.6,0.9-3.9,1.4c-0.3,0.1-0.5,0.2-0.6,0.3c-0.2,0.2-0.4,0.3-0.6,0.3c-0.4,0-0.9-0.3-1.3-0.8c-0.4-0.5-0.6-1-0.6-1.4
		c0-0.3,0.1-0.4,0.2-0.4c0.1,0,0.3,0.1,0.4,0.3c0.4,0.5,0.8,0.8,1.2,0.8c0.3,0,0.8-0.1,1.4-0.2c0.7-0.2,1.8-0.4,3.2-0.9
		c0.2-0.1,0.4-0.2,0.6-0.4c0.1-0.1,0.3-0.2,0.5-0.2c0.3,0,0.7,0.2,1.2,0.5c0.5,0.4,0.8,0.7,0.8,1c0,0.3-0.2,0.4-0.5,0.5
		c-0.3,0.1-0.7,0.4-1.2,0.8c-0.1,0.1-2.2,2.4-6.2,6.9l0,0c1.8-1.2,3.5-1.9,5-1.9c1.9,0,3.4,0.6,4.3,1.7c0.7,0.8,1,1.8,1,3
		c0,1.8-0.8,3.2-2.3,4.2c-1.2,0.8-2.6,1.3-4.2,1.3c-1.5,0-2.6-0.3-3.5-0.8c-0.7-0.5-1-1.1-1-1.8c0-0.6,0.2-1.1,0.7-1.4
		c0.4-0.3,0.9-0.5,1.5-0.5c1.1,0,2.1,0.4,2.9,1.3C106.3,18.5,106.7,19.1,106.9,19.7z M105.6,20c-0.2-0.7-0.7-1.4-1.3-1.9
		c-0.5-0.5-1.1-0.7-1.6-0.7c-0.5,0-0.8,0.1-1,0.4c-0.2,0.2-0.3,0.4-0.3,0.7c0,0.4,0.3,0.8,0.9,1.1c0.6,0.3,1.4,0.5,2.4,0.5
		C105.1,20.1,105.4,20,105.6,20z"/>
	<path class="st0" d="M123.1,12.1c0,0.1,0,0.2,0,0.3c-0.6,1.9-1.1,3.5-1.4,4.9c-0.2,0.9-0.3,1.6-0.3,1.9c0,0.3,0,0.5,0,0.7
		c0,0.1,0,0.2,0.1,0.4c0,0.1,0,0.2,0,0.3c0,0.3-0.2,0.5-0.6,0.5c-0.4,0-0.8-0.4-1.1-1.2c-0.4-1.1-0.6-2.8-0.6-4.9
		c0-1.8,0.4-4.4,1.1-7.9c0.2-1.1,0.3-1.8,0.3-2.1c0-0.7-0.2-1.4-0.7-1.9c-0.1-0.1-0.2-0.3-0.2-0.4c0-0.1,0.1-0.2,0.3-0.2
		c0.2,0,0.3,0.1,0.6,0.3c0.4,0.3,0.7,0.7,1.1,1.3c0.3,0.4,0.4,0.8,0.4,1.1c0,0.2-0.1,0.5-0.2,0.7c-0.2,0.3-0.4,0.9-0.6,1.6
		c-0.4,1.1-0.7,2.4-1,4c-0.2,1.3-0.3,2.5-0.3,3.3c0,1,0.1,1.8,0.2,2.4c0,0.1,0.1,0.2,0.2,0.2s0.1-0.1,0.2-0.2c0.7-2,1.4-3.7,1.9-5.1
		c0.1-0.2,0.2-0.3,0.3-0.3C123.1,11.9,123.1,11.9,123.1,12.1z M134.3,4.9l-1.6,0c-2.1,0-4.1,0.4-6,1.2c-0.2,0.1-0.3,0.1-0.4,0.1
		c-0.1,0-0.2-0.1-0.2-0.2c0-0.1,0.1-0.3,0.4-0.4c2-1.4,4.3-2.1,6.8-2.1c1.1,0,1.7,0.3,1.7,0.8C135,4.6,134.8,4.9,134.3,4.9z
		 M131.6,11.6c-1,0.2-1.9,0.3-2.8,0.3c-1.7,0-2.5-0.6-2.5-1.8c0-0.6,0.2-1.2,0.7-1.8c0.1-0.1,0.2-0.1,0.3-0.1c0.1,0,0.2,0,0.2,0.1
		c0,0.1-0.1,0.2-0.2,0.4c-0.2,0.3-0.3,0.7-0.3,1.1c0,0.7,0.4,1,1.3,1c1,0,2.1-0.1,3.2-0.4c0-0.6,0-1.3,0-1.9c0-0.3-0.1-0.6-0.2-0.7
		c-0.2-0.2-0.4-0.3-0.8-0.3c-0.2,0-0.3-0.1-0.3-0.2c0-0.3,0.3-0.5,0.9-0.5c0.4,0,0.7,0.1,1.1,0.3c0.4,0.2,0.6,0.4,0.6,0.6
		c0,0.1,0,0.3-0.1,0.5c-0.1,0.2-0.1,0.4-0.2,0.6c0,0.4,0,0.8,0,1.2c0.5-0.1,1.2-0.4,2.1-0.8c0.3-0.1,0.5-0.2,0.6-0.2
		c0.4,0,0.5,0.2,0.5,0.5c0,0.3-0.2,0.6-0.6,0.8c-0.8,0.4-1.7,0.8-2.7,1c0,1.2,0.1,2.9,0.2,5.2c1.6,0.5,2.9,1.1,3.8,1.8
		c0.4,0.3,0.6,0.7,0.6,1.1c0,0.2-0.1,0.4-0.2,0.5c-0.1,0.1-0.3,0.2-0.4,0.2c-0.3,0-0.6-0.1-0.8-0.4c-0.8-0.8-1.8-1.4-2.9-1.9
		c0,1-0.4,1.8-1.1,2.2c-0.6,0.4-1.3,0.5-2.2,0.5c-1.1,0-1.9-0.2-2.6-0.7c-0.5-0.4-0.8-0.9-0.8-1.4c0-0.9,0.5-1.5,1.4-1.9
		c0.6-0.3,1.4-0.4,2.3-0.4c0.7,0,1.3,0.1,1.7,0.2C131.7,15.2,131.7,13.6,131.6,11.6z M131.7,17.4c-0.8-0.2-1.6-0.4-2.4-0.4
		c-1.5,0-2.3,0.4-2.3,1.3c0,0.8,0.8,1.2,2.5,1.2C130.9,19.5,131.6,18.8,131.7,17.4z"/>
	<path class="st0" d="M148.7,11.7c-0.6-0.3-1-1-1.1-2.1c-0.1-1.2-0.2-2.8-0.3-5c0-0.5-0.1-0.8-0.3-0.9c-0.3-0.3-0.7-0.4-1.1-0.4
		c-0.1,0-0.1-0.1-0.1-0.2c0-0.1,0.1-0.3,0.4-0.4c0.2-0.1,0.4-0.2,0.6-0.2c0.6,0,1.2,0.3,1.9,0.8c0.3,0.3,0.5,0.5,0.5,0.8
		c0,0.1-0.1,0.3-0.3,0.6c-0.1,0.2-0.2,0.3-0.2,0.6c0,0.6,0,1.1,0,1.7c0,1.1,0,2.1,0.1,3.2c0.1,0.6,0.3,0.9,0.6,0.9c0,0,0,0,0.1,0
		c0.2,0,0.3-0.1,0.6-0.2c1.1-0.5,2.1-1.1,3.1-1.6c0.3-0.2,0.5-0.4,0.5-0.5c0-0.2-0.2-0.5-0.7-0.8c-0.1-0.1-0.2-0.2-0.2-0.3
		c0-0.1,0.1-0.2,0.4-0.2c0.6,0,1.2,0.3,1.8,1c0.4,0.5,0.6,0.8,0.6,1.1c0,0.3-0.3,0.5-0.8,0.7c-2.4,0.9-4.1,1.5-5,2
		c-1.8,0.9-3,1.6-3.7,2.2c-0.9,0.8-1.3,1.6-1.3,2.5c0,1.7,1.5,2.5,4.5,2.5c1.9,0,3.5-0.2,4.6-0.5c0.3-0.1,0.6-0.1,0.8-0.1
		c0.4,0,0.8,0.1,1.1,0.3c0.3,0.2,0.4,0.4,0.4,0.7c0,0.3-0.1,0.4-0.3,0.6c-0.2,0.1-0.5,0.2-1,0.2c-1.1,0.2-2.5,0.2-4.3,0.2
		c-2.2,0-3.8-0.3-4.9-0.8c-1.2-0.6-1.8-1.6-1.8-3C144,15.1,145.6,13.3,148.7,11.7z M155.8,4.1c0.1,0,0.2,0,0.2,0
		c0.7,0.3,1.3,0.6,1.8,1c0.7,0.6,1,1.1,1,1.6c0,0.5-0.2,0.7-0.6,0.7c-0.3,0-0.5-0.3-0.8-0.8c-0.4-0.7-1-1.3-1.8-1.9
		c-0.1-0.1-0.1-0.1-0.1-0.2C155.6,4.1,155.7,4.1,155.8,4.1z M157.9,2.6c0.1,0,0.2,0,0.4,0.1c0.6,0.2,1.2,0.4,1.7,0.8
		c0.7,0.5,1.1,1,1.1,1.5c0,0.2-0.1,0.4-0.2,0.5c-0.1,0.1-0.2,0.2-0.4,0.2c-0.3,0-0.5-0.2-0.8-0.6c-0.4-0.7-1.1-1.4-2-1.9
		c-0.1,0-0.1-0.1-0.1-0.2C157.6,2.6,157.7,2.6,157.9,2.6z"/>
	<path class="st0" d="M175.8,9.7c0.6,0,2-0.1,4.3-0.3c0.3,0,0.6-0.1,0.9-0.3c0.3-0.1,0.5-0.2,0.7-0.2c0.4,0,0.9,0.1,1.4,0.4
		c0.4,0.2,0.7,0.5,0.7,0.9c0,0.3-0.2,0.5-0.6,0.5c-0.1,0-0.5,0-1.2,0s-1.4,0-2.2,0c-1.2,0-2.5,0-4,0.1c-0.2,2.8-0.8,5.1-1.9,6.8
		c-1,1.6-2.5,2.9-4.5,4c-0.3,0.1-0.4,0.2-0.6,0.2c-0.2,0-0.3-0.1-0.3-0.4c0-0.1,0.1-0.2,0.4-0.4c1.9-1.3,3.4-2.8,4.2-4.7
		c0.7-1.5,1.2-3.4,1.3-5.5c-1.5,0.1-3.2,0.3-5.1,0.6c-0.6,0.1-1.1,0.2-1.3,0.4c-0.2,0.1-0.4,0.2-0.6,0.2c-0.5,0-0.9-0.3-1.5-0.9
		c-0.4-0.5-0.6-0.8-0.6-1.1c0-0.3,0.1-0.5,0.2-0.5c0.1,0,0.2,0.1,0.3,0.2c0.6,0.5,1.1,0.8,1.6,0.8c0.2,0,0.8,0,1.8-0.1
		c2.4-0.3,4.1-0.4,5.3-0.6c0-0.7,0-1.1,0-1.3c0-0.4-0.1-0.7-0.4-0.8c-0.2-0.1-0.5-0.2-0.9-0.3c-0.2,0-0.2-0.1-0.2-0.2
		c0-0.1,0.1-0.2,0.3-0.3c0.3-0.1,0.6-0.2,0.9-0.2c0.4,0,0.9,0.1,1.5,0.4c0.4,0.2,0.6,0.4,0.6,0.7c0,0.2-0.1,0.4-0.2,0.6
		c-0.1,0.1-0.1,0.3-0.1,0.4C175.8,9.3,175.8,9.6,175.8,9.7z M176.4,2.2c0.5,0,1,0.2,1.6,0.6c0.7,0.5,1.1,0.9,1.1,1.2
		c0,0.3-0.2,0.5-0.7,0.6c-0.3,0.1-0.6,0.1-0.8,0.2c-3.4,1.3-6.8,2.2-10.1,2.7c0,0,0,0-0.1,0c-0.2,0-0.3-0.1-0.3-0.3
		c0-0.1,0.2-0.2,0.5-0.3c3.7-1,6.6-2,8.7-3.1c0.3-0.1,0.4-0.2,0.4-0.3c0-0.2-0.2-0.4-0.7-0.6c-0.2-0.1-0.3-0.2-0.3-0.3
		C175.9,2.3,176.1,2.2,176.4,2.2z"/>
	<path class="st0" d="M193.2,11.4c2-0.6,3.6-1,4.9-1.3c0.2,0,0.4-0.2,0.6-0.4c0.2-0.2,0.3-0.3,0.5-0.3c0.3,0,0.7,0.2,1.1,0.6
		s0.7,0.7,0.7,1c0,0.3-0.2,0.4-0.5,0.4c-0.3,0-0.5,0.1-0.7,0.3c-1.3,1.4-2.6,2.5-3.8,3.5c-0.1,0.1-0.2,0.1-0.3,0.1
		c-0.2,0-0.2-0.1-0.2-0.2c0-0.1,0.1-0.2,0.2-0.3c1.3-1.3,2.4-2.6,3.3-3.9c0-0.1,0-0.1-0.1-0.1c-1.2,0.3-3,0.8-5.4,1.6
		c0,0,0.1,0.6,0.4,1.8c0.7,2.7,1.2,4.5,1.4,5.5c0.1,0.5,0.2,0.8,0.2,0.9c0,0.2-0.1,0.3-0.2,0.4c-0.1,0.1-0.2,0.2-0.4,0.2
		c-0.5,0-0.7-0.2-0.8-0.6c-0.7-3.5-1.2-5.6-1.3-6.2c0-0.2-0.2-0.8-0.4-1.7c-1.5,0.5-2.6,0.9-3.3,1.1c-0.4,0.1-0.7,0.3-0.8,0.5
		c-0.1,0.1-0.2,0.2-0.4,0.2c-0.4,0-0.8-0.2-1.2-0.6c-0.5-0.5-0.7-0.9-0.7-1.2c0-0.3,0.1-0.5,0.2-0.5c0.1,0,0.2,0.1,0.3,0.2
		c0.4,0.4,0.7,0.6,1,0.6c0.4,0,0.8-0.1,1.3-0.2c1.2-0.4,2.4-0.7,3.4-1c-0.2-1.1-0.4-2-0.6-2.6c-0.1-0.5-0.3-0.8-0.4-0.9
		c-0.2-0.1-0.5-0.2-1-0.2c-0.2,0-0.3,0-0.3-0.1c0-0.1,0.1-0.3,0.4-0.5c0.3-0.2,0.5-0.2,0.7-0.2c0.3,0,0.8,0.2,1.5,0.5
		c0.4,0.2,0.6,0.4,0.6,0.6c0,0.1,0,0.3-0.1,0.4c-0.1,0.1-0.2,0.2-0.2,0.4c0,0.1,0,0.3,0.1,0.5C192.9,10,193,10.7,193.2,11.4z"/>
	<path class="st0" d="M208.6,6.2c-0.1-0.1-0.2-0.2-0.2-0.3c0-0.2,0.1-0.3,0.3-0.3c0.1,0,0.3,0,0.4,0c0.9,0.2,1.8,0.6,2.6,1.3
		c0.8,0.6,1.2,1.3,1.2,2c0,0.6-0.3,0.9-0.8,0.9c-0.4,0-0.7-0.2-0.9-0.7C210.6,7.9,209.7,6.9,208.6,6.2z M210.6,17.3
		c0.2,0,0.6-0.2,1.1-0.5c2-1.2,4.1-2.8,6.3-4.8c2-1.8,3.8-3.8,5.4-5.9c0.1-0.1,0.2-0.2,0.3-0.2c0.2,0,0.4,0.1,0.4,0.3
		c0,0.1,0,0.3-0.1,0.4c-1.3,2.1-3,4.3-5.2,6.4c-1.6,1.6-3.6,3.3-6.1,5.2c-0.3,0.2-0.5,0.4-0.6,0.6c-0.1,0.3-0.3,0.4-0.6,0.4
		c-0.4,0-0.9-0.3-1.6-0.9c-0.7-0.7-1-1.2-1-1.6c0-0.3,0.1-0.5,0.2-0.5c0.1,0,0.2,0.1,0.3,0.2C209.9,17,210.3,17.3,210.6,17.3z"/>
	<path class="st0" d="M234.5,12.2c-1.7,1.6-3.3,3-4.8,4.1c-1.1,0.8-2.4,1.6-3.8,2.3c-0.4,0.2-0.6,0.3-0.7,0.3
		c-0.2,0-0.3-0.1-0.3-0.3c0-0.1,0.1-0.2,0.2-0.3c2.4-1.4,4.7-3.3,7.1-5.5c1.7-1.6,3.3-3.3,4.8-5.2c0-0.1,0.1-0.1,0.1-0.2
		c0-0.1,0-0.1-0.1-0.1c0,0-0.1,0-0.1,0c-2.2,0.5-4.3,1.1-6.3,1.8c-0.4,0.1-0.6,0.2-0.7,0.3c-0.2,0.2-0.4,0.3-0.6,0.3
		c-0.4,0-0.8-0.3-1.3-0.9c-0.4-0.5-0.6-0.9-0.6-1.3c0-0.4,0.1-0.6,0.3-0.6c0.1,0,0.2,0.1,0.3,0.3c0.3,0.6,0.7,0.8,1.3,0.8
		c0.1,0,0.5,0,1-0.1c2.5-0.5,4.6-1,6.3-1.4c0.3-0.1,0.5-0.2,0.6-0.3c0.2-0.2,0.4-0.3,0.5-0.3c0.2,0,0.6,0.2,1.1,0.6
		c0.6,0.4,0.9,0.8,0.9,1c0,0.2-0.2,0.4-0.6,0.5c-0.3,0.1-0.5,0.2-0.7,0.4c-0.9,1-1.8,2-2.7,2.9c0.2,0.3,0.3,0.5,0.3,0.7l-0.1,0.6
		c0,0.2,0,0.6,0,1.1l0,2.6l0,4.8c0,0.6-0.2,0.9-0.6,0.9c-0.3,0-0.5-0.2-0.7-0.7c-0.2-0.4-0.3-0.9-0.3-1.2c0-0.2,0-0.4,0.1-0.7
		c0.1-0.3,0.2-0.7,0.2-1.3V12.2z M232.8,2.1c-0.2-0.1-0.3-0.2-0.3-0.4c0-0.2,0.1-0.2,0.3-0.2c0.3,0,0.8,0.1,1.3,0.3
		c0.5,0.2,0.9,0.4,1.3,0.7c0.8,0.5,1.1,1.1,1.1,1.7c0,0.6-0.3,0.9-0.8,0.9c-0.3,0-0.6-0.2-0.8-0.6C234.5,3.6,233.8,2.8,232.8,2.1z
		 M237.9,12.3c-0.2-0.1-0.2-0.2-0.2-0.3c0-0.1,0.1-0.2,0.3-0.2c0.7,0,1.6,0.3,2.7,0.9c1.2,0.7,1.9,1.4,1.9,2.2
		c0,0.3-0.1,0.6-0.2,0.8c-0.1,0.2-0.3,0.2-0.5,0.2c-0.3,0-0.7-0.3-1-0.8C240.1,14.1,239.1,13.1,237.9,12.3z"/>
	<path class="st0" d="M251.5,9.2c0-0.3-0.1-0.6-0.3-0.7c-0.3-0.2-0.6-0.4-0.8-0.5c-0.2-0.1-0.3-0.2-0.3-0.3s0.1-0.2,0.2-0.3
		c0.1-0.1,0.2-0.1,0.4-0.1c0.5,0,1.2,0.3,1.9,0.8c0.6,0.4,0.9,0.8,0.9,1.2c0,0.2-0.1,0.4-0.3,0.5c-0.2,0.1-0.3,0.4-0.4,0.9
		c-0.5,1.6-1.2,3.2-2.3,4.7c-1.1,1.5-2.4,2.7-3.9,3.7c-0.2,0.1-0.3,0.1-0.4,0.1c-0.2,0-0.3-0.1-0.3-0.2c0-0.1,0.1-0.2,0.2-0.3
		c1.3-1.1,2.4-2.4,3.3-3.9c0.9-1.6,1.6-3,1.9-4.3C251.5,10,251.5,9.5,251.5,9.2z M255.8,8.1c0-0.8,0-1.3-0.1-1.5
		c-0.1-0.3-0.5-0.6-1.2-0.8c-0.1-0.1-0.2-0.1-0.2-0.2c0-0.1,0.1-0.2,0.2-0.3c0.1-0.1,0.3-0.1,0.5-0.1c0.4,0,1,0.2,1.7,0.6
		c0.6,0.4,0.9,0.7,0.9,1c0,0.2-0.1,0.4-0.3,0.6c-0.1,0.2-0.2,0.4-0.2,0.9c-0.1,3.1-0.1,5.6-0.1,7.5c0,0.1,0,0.2,0.1,0.2
		c0.1,0,0.2,0,0.3-0.1c2.9-1.2,5.7-3,8.5-5.4c0.1-0.1,0.2-0.2,0.3-0.2c0.2,0,0.3,0.1,0.3,0.3c0,0.1,0,0.2-0.1,0.3
		c-1.8,2.1-4.6,4.3-8.4,6.5c-0.2,0.1-0.4,0.3-0.5,0.5c-0.1,0.2-0.3,0.3-0.5,0.3c-0.2,0-0.6-0.2-1-0.7c-0.4-0.4-0.6-0.8-0.6-1
		c0,0,0-0.2,0.1-0.4c0.1-0.2,0.1-0.4,0.1-0.7C255.8,13.8,255.8,11.4,255.8,8.1z"/>
</g>
</svg>
