<?xml version="1.0" encoding="utf-8"?>
<!-- Generator: Adobe Illustrator 23.0.2, SVG Export Plug-In . SVG Version: 6.00 Build 0)  -->
<svg version="1.1" id="レイヤー_1" xmlns="http://www.w3.org/2000/svg" xmlns:xlink="http://www.w3.org/1999/xlink" x="0px"
	 y="0px" viewBox="0 0 163.6 150.1" style="enable-background:new 0 0 163.6 150.1;" xml:space="preserve">
<style type="text/css">
	.st0{fill:#040000;}
</style>
<g>
	<path class="st0" d="M13.8,20.3c3.2-1.9,5.9-2.8,8.3-2.8c1.8,0,3.4,0.5,4.6,1.5c1.2,1,1.7,2.2,1.7,3.7c0,1.7-0.7,3.1-2.1,4.1
		c-1.1,0.8-2.4,1.2-4,1.2c-2.3,0-4.3-0.9-6.1-2.6c-0.1-0.1-0.2-0.3-0.2-0.5c0-0.2,0.1-0.3,0.3-0.3c0.1,0,0.3,0.1,0.4,0.2
		c1.4,1.1,3,1.7,4.9,1.7c1.3,0,2.4-0.4,3.3-1.3c0.8-0.8,1.2-1.7,1.2-2.9c0-1.1-0.5-2-1.6-2.7c-0.9-0.6-1.8-0.8-2.9-0.8
		c-1.2,0-2.6,0.4-4.1,1.1c-1,0.5-2.3,1.2-3.9,2.2c0,0.6,0,1.3,0.1,2.2c0.1,1.1,0.1,1.8,0.1,2.1l0.1,1.4c0,0.8-0.1,1.5-0.3,2
		c-0.3,0.8-0.6,1.1-1.1,1.1c-0.4,0-0.7-0.2-0.9-0.6c-0.2-0.5-0.6-1-1.1-1.4c-0.7-0.6-1.8-1.4-3.2-2.4c-0.5,0.5-0.8,0.7-0.9,0.8
		c-0.4,0.4-0.8,0.6-1.2,0.6c-0.5,0-1-0.4-1.6-1.1c-0.4-0.6-0.6-1-0.6-1.4c0-0.7,0.2-1.1,0.5-1.1c0.1,0,0.3,0.2,0.4,0.5
		c0.3,0.6,0.6,0.8,1,0.8c0.3,0,0.6-0.1,0.9-0.3c1.1-0.6,2.3-1.4,3.7-2.3c1.5-1,2.5-1.5,2.8-1.7v-7.4c-1.8,0.4-3.1,0.6-3.8,0.6
		c-1.4,0-2.4-0.6-3.2-1.8c-0.3-0.5-0.5-0.8-0.5-1.1c0-0.3,0.1-0.4,0.4-0.4c0.1,0,0.2,0.1,0.4,0.3c0.4,0.6,0.8,0.9,1.2,1.1
		c0.4,0.2,0.8,0.3,1.4,0.3c1,0,2.4-0.2,4.1-0.6c0-1.5,0.1-2.6,0.1-3.4c0-1-0.1-1.6-0.2-1.8c-0.3-0.5-0.9-0.7-1.6-0.8
		c-0.2,0-0.3-0.1-0.3-0.3c0-0.2,0.2-0.4,0.5-0.6c0.3-0.1,0.5-0.2,0.9-0.2c0.5,0,1.2,0.2,2.1,0.6C14.6,5.9,15,6.3,15,6.9
		c0,0.3-0.1,0.6-0.3,0.8c-0.3,0.3-0.5,0.9-0.6,1.7C14,10,14,10.7,13.9,11.5c1.2-0.4,2.1-0.8,2.7-1.3c0.3-0.2,0.6-0.4,1.1-0.6
		c0.5-0.2,0.9-0.3,1.2-0.3c0.8,0,1.2,0.3,1.2,0.9c0,0.4-0.3,0.8-0.8,1c-1.5,0.7-3.3,1.4-5.5,2c0,0.9,0,2.1,0,3.5
		C13.8,18.3,13.8,19.5,13.8,20.3z M12.2,22.7c-0.4,0.3-1.8,1.3-4.1,2.9c0.9,0.5,1.8,1.1,2.9,1.5c0.4,0.2,0.7,0.2,0.9,0.2
		c0.2,0,0.3-0.3,0.3-0.8C12.2,25.1,12.2,23.7,12.2,22.7z M26.2,10.8c1.4,0,2.8,0.5,4.1,1.5C31.4,13.1,32,14,32,15
		c0,0.6-0.3,0.9-0.8,0.9c-0.1,0-0.3-0.1-0.7-0.2c-0.3-0.1-0.5-0.2-0.8-0.2c0,0-0.3,0.1-0.8,0.2c-0.3,0.1-0.8,0.3-1.6,0.7
		c-0.1,0-0.2,0.1-0.4,0.1c-0.2,0-0.4-0.1-0.4-0.3c0-0.2,0.1-0.4,0.3-0.5c1.1-0.6,1.8-1.1,2.2-1.4c0.2-0.2,0.2-0.3,0.2-0.4
		c0-0.1-0.1-0.2-0.2-0.4c-0.8-1-1.9-1.5-3.3-1.5c-0.8,0-1.5,0.1-2,0.3c-0.4,0.2-0.7,0.3-0.8,0.3c-0.2,0-0.3-0.1-0.3-0.3
		c0-0.2,0.2-0.4,0.7-0.7C24.2,11.1,25.2,10.8,26.2,10.8z"/>
	<path class="st0" d="M72.1,15.6c1.1,0.2,1.9,0.5,2.4,1c0.5,0.4,0.7,0.8,0.7,1.3c0,0.3-0.1,0.5-0.4,0.8c-0.2,0.2-0.4,0.3-0.7,0.3
		c-0.4,0-0.7-0.2-0.8-0.7c-0.3-1-0.9-1.7-1.7-2.2c-1.6,1.2-3.4,2.1-5.3,2.8c0,0,0,0-0.1,0c-0.2,0-0.3-0.1-0.3-0.3
		c0-0.1,0-0.1,0.1-0.1c2.6-1.5,4.8-3.4,6.5-5.5c0.6-0.8,1.1-1.6,1.5-2.4h-4.5c-0.5,0-1.3,0.1-2.2,0.2L67,9.3c1,0.2,1.9,0.2,2.6,0.2
		h23c1-1.1,1.5-1.7,1.7-1.7c0.2,0,0.8,0.4,1.9,1.3c0.5,0.4,0.7,0.7,0.7,0.9c0,0.2-0.2,0.3-0.5,0.3H74.7c1,0.3,1.7,0.6,1.9,0.7
		c0.2,0.1,0.3,0.3,0.3,0.4c0,0.2-0.4,0.4-1.3,0.4c-0.4,0.5-0.8,1-1.2,1.4h5c0.5-0.6,0.9-0.9,1-0.9c0.2,0,0.6,0.4,1.5,1.1
		c0.3,0.3,0.5,0.6,0.5,0.8c0,0.2-0.4,0.4-1.2,0.6c-1.8,2.6-4,4.5-6.7,6c-2.4,1.3-5.2,2.2-8.5,2.7c-0.2,0-0.2-0.1-0.2-0.3
		c0-0.1,0-0.1,0.1-0.2c3.6-1.1,6.5-2.5,8.7-4c1.9-1.3,3.5-3,4.8-5h-5.8C73,14.8,72.6,15.3,72.1,15.6z M87.1,4.9h6.2
		c1-1.1,1.5-1.7,1.7-1.7c0.2,0,0.8,0.4,1.9,1.3c0.5,0.4,0.8,0.7,0.8,0.9c0,0.2-0.2,0.3-0.5,0.3H87.1c0,0.4,0,0.8,0.1,1.2
		c0,0.3,0,0.4,0,0.5c0,0.6-0.4,0.9-1.3,0.9c-0.6,0-0.9-0.2-0.9-0.7c0-0.1,0-0.3,0-0.6c0-0.4,0-0.8,0.1-1.2h-6.9c0,0.4,0,0.8,0.1,1.2
		c0,0.3,0,0.4,0,0.5c0,0.6-0.4,0.9-1.3,0.9c-0.6,0-0.9-0.3-0.9-0.8c0,0,0-0.2,0-0.6c0-0.4,0-0.8,0.1-1.3h-6.8
		c-0.7,0-1.4,0.1-2.3,0.2l-0.4-1.3c1,0.2,2,0.2,2.7,0.2H76V4.6c0-1.2-0.1-2.3-0.2-3.2c1.6,0.2,2.5,0.3,2.9,0.5
		c0.3,0.1,0.5,0.3,0.5,0.5c0,0.3-0.4,0.5-1.2,0.8v1.7H85V4.8c0-1.1-0.1-2.1-0.2-3.3c1.5,0.2,2.4,0.3,2.9,0.4C88,2,88.2,2.2,88.2,2.4
		c0,0.3-0.4,0.5-1.1,0.8V4.9z M87,24.8h6.2c1-1.1,1.6-1.7,1.7-1.7c0.2,0,0.8,0.4,1.9,1.3c0.5,0.4,0.7,0.7,0.7,0.9
		c0,0.2-0.2,0.3-0.5,0.3H87v0.6l0.1,6.2c0,0.7-0.5,1-1.4,1c-0.6,0-0.9-0.3-0.9-0.8l0-5.9v-1h-6.7c-0.3,2.2-1.2,3.9-2.8,5.1
		c-2.1,1.7-4.9,2.7-8.4,3c-0.2,0-0.2-0.1-0.2-0.3c0-0.1,0-0.1,0.1-0.2c3.2-0.8,5.6-2.1,7.2-3.8c1.1-1.1,1.8-2.4,2-3.9h-6.8
		c-0.7,0-1.5,0.1-2.3,0.2l-0.4-1.2c1.1,0.1,2,0.2,2.6,0.2h6.9c0-0.2,0-0.4,0-0.8c0-0.9,0-1.7-0.1-2.3c1.6,0.2,2.6,0.4,3,0.5
		c0.3,0.1,0.4,0.2,0.4,0.4c0,0.3-0.4,0.5-1.2,0.8c0,0.6,0,1,0,1.3h6.6c0-1.1-0.1-2.1-0.2-2.9c2.2,0.2,3.3,0.5,3.3,0.9
		c0,0.3-0.3,0.5-1,0.8V24.8z M85.9,15.8c2-0.7,3.7-1.6,5-2.4c0.9-0.6,1.6-1.2,2-1.7c1.5,1.2,2.3,1.9,2.3,2.1c0,0.2-0.2,0.3-0.6,0.3
		c-0.3,0-0.6-0.1-1-0.2c-2.2,1.2-4.7,2.1-7.6,2.7v1.3c0,0.7,0.3,1.1,0.8,1.3c0.4,0.1,1.4,0.2,2.8,0.2c1.7,0,2.8,0,3.5-0.1
		c0.6-0.1,1-0.2,1.3-0.5c0.4-0.3,0.9-1.2,1.5-2.8c0-0.1,0.1-0.1,0.2-0.1c0.1,0,0.2,0.1,0.2,0.2c0,1.2-0.1,1.9-0.1,2.1
		c0,0.3,0.1,0.5,0.4,0.6c0.4,0.1,0.5,0.4,0.5,0.7c0,0.6-0.5,1-1.6,1.3c-1,0.3-3,0.4-6.1,0.4c-2.2,0-3.7-0.2-4.4-0.7
		c-0.6-0.4-0.9-1.2-0.9-2.3l0.1-3c0-2,0-3.5-0.1-4.3c1.4,0.1,2.3,0.3,2.6,0.4c0.3,0.1,0.5,0.3,0.5,0.5c0,0.2-0.3,0.5-1,0.8V15.8z"/>
	<path class="st0" d="M148.7,8.9c0-0.3,0-0.8,0-1.5c0-0.6,0-1.1,0-1.4c0-1.7-0.1-3-0.2-3.9c1.6,0.2,2.7,0.3,3.1,0.5
		c0.3,0.1,0.5,0.3,0.5,0.5c0,0.3-0.4,0.6-1.2,0.9c0,1.8,0,3.5,0.1,4.9h6.1c0.9-1.1,1.5-1.6,1.7-1.6c0.2,0,0.8,0.4,1.8,1.3
		c0.5,0.4,0.8,0.7,0.8,0.9s-0.1,0.3-0.4,0.3H151c0.2,4.4,0.8,8,1.7,10.9c1.1,3.3,2.8,6,5.2,8.1c0.6,0.5,1.1,0.8,1.3,0.8
		c0.3,0,1-1.3,2-4c0-0.1,0.1-0.1,0.2-0.1c0,0,0.1,0,0.1,0c0.1,0,0.1,0.1,0.1,0.2c-0.3,2.7-0.5,4.1-0.5,4.3c0,0.3,0.2,0.7,0.5,1
		c0.2,0.2,0.3,0.5,0.3,0.8c0,0.7-0.4,1.1-1.2,1.1c-0.6,0-1.4-0.3-2.3-0.8c-1.7-1-3.2-2.4-4.6-4.3c-1.3-1.8-2.4-3.8-3.1-6.1
		c-1.1-3.3-1.8-7.3-2-11.9h-15c-0.8,0-1.6,0.1-2.4,0.2L131,8.7c0.8,0.2,1.7,0.2,2.7,0.2H148.7z M138.8,26.6v-9.8h-4
		c-0.7,0-1.5,0.1-2.4,0.2l-0.3-1.4c0.9,0.2,1.8,0.3,2.6,0.3h9.1c0.9-1.1,1.4-1.7,1.6-1.7c0.2,0,0.8,0.4,1.8,1.3
		c0.5,0.4,0.7,0.7,0.7,1c0,0.2-0.2,0.3-0.5,0.3h-6.5V26c2.6-0.6,5-1.4,7.2-2.2c0,0,0,0,0.1,0c0.1,0,0.2,0.1,0.2,0.3
		c0,0.1,0,0.1-0.1,0.2c-3.4,2-8.3,3.9-14.5,5.7c-0.2,0.8-0.4,1.2-0.7,1.2c-0.2,0-0.4-0.2-0.6-0.7c-0.2-0.5-0.5-1.4-0.9-2.7
		c0.8,0,1.7-0.1,2.8-0.3C136,27.3,137.5,26.9,138.8,26.6z M153.1,3.4c0,0-0.1-0.1-0.1-0.1c0-0.2,0.1-0.2,0.3-0.2
		c1.5,0.2,2.6,0.6,3.5,1.2c0.7,0.5,1.1,1.2,1.1,1.9c0,0.4-0.1,0.7-0.4,0.9c-0.2,0.2-0.5,0.3-0.8,0.3c-0.5,0-0.8-0.3-1.1-1
		C155.1,5.2,154.2,4.2,153.1,3.4z"/>
	<path class="st0" d="M10.7,66.9c-1.4,0.2-2.7,0.4-3.9,0.4c-0.8,0-1.5-0.2-2.2-0.5c-0.6-0.3-1.1-0.8-1.3-1.3
		c-0.1-0.2-0.1-0.3-0.1-0.4c0-0.2,0.1-0.3,0.3-0.3c0.1,0,0.3,0.1,0.5,0.2c0.8,0.5,1.7,0.8,2.8,0.8c1.2,0,2.7-0.2,4.7-0.6
		c0.4-1,0.8-2.1,1.2-3.4c0.1-0.4,0.2-0.8,0.2-1.2c0-0.3-0.2-0.6-0.6-0.9c-0.5-0.3-0.9-0.5-1.3-0.5c-0.2,0-0.3-0.1-0.3-0.2
		c0-0.4,0.4-0.6,1.2-0.6c0.7,0,1.6,0.3,2.7,0.8c0.8,0.4,1.1,0.7,1.1,1.1c0,0.3-0.1,0.6-0.4,0.8c-0.2,0.2-0.5,0.6-0.9,1.4
		c0,0.1-0.2,0.4-0.5,1.1c-0.2,0.5-0.4,0.9-0.5,1.2c0.9-0.3,1.9-0.6,3-1.1c0.8-0.4,1.4-0.6,1.8-0.6c0.3,0,0.6,0.1,0.8,0.3
		c0.2,0.2,0.3,0.4,0.3,0.6c0,0.5-0.4,0.9-1.2,1.1c-1.8,0.6-3.6,1.1-5.5,1.5C9.8,72.8,7.6,77.6,5.8,81c-0.2,0.5-0.6,0.7-1.2,0.7
		c-0.3,0-0.5-0.1-0.7-0.4c-0.2-0.2-0.2-0.4-0.2-0.7c0-0.3,0.1-0.6,0.2-0.8C6.4,75.8,8.7,71.5,10.7,66.9z M23,69.4
		c-0.8-0.3-1.8-0.4-3-0.4c-0.6,0-1.2,0.1-1.8,0.2c0,0-0.1,0-0.1,0c-0.3,0-0.4-0.1-0.4-0.3c0-0.3,0.2-0.4,0.5-0.5
		c0.9-0.3,1.9-0.4,3-0.4c1.1,0,2.3,0.2,3.4,0.5c1.1,0.3,1.9,0.7,2.6,1.1c1,0.7,1.5,1.3,1.5,2c0,0.2-0.1,0.5-0.3,0.6
		c-0.2,0.2-0.4,0.2-0.6,0.2c-0.4,0-0.8-0.2-1.2-0.6c-0.9-0.9-1.9-1.4-2.9-1.4c-1,0-1.8,0.3-2.5,1c-0.6,0.6-0.9,1.3-0.9,2.2
		c0,0.9,0.1,2.1,0.4,3.5c0.1,0.4,0.2,1,0.4,1.9c0.1,0.6,0.2,1.1,0.3,1.5c3.2,1,5.4,2,6.5,3c0.4,0.3,0.6,0.8,0.6,1.2c0,0.7-0.3,1-1,1
		c-0.3,0-0.6-0.2-0.9-0.4c-1.9-1.5-3.5-2.5-5-3c-0.1,1.4-0.5,2.4-1.1,3.2c-0.9,0.9-2.3,1.3-4.2,1.3c-1.6,0-2.8-0.4-3.7-1.1
		c-0.7-0.6-1.1-1.3-1.1-2.2c0-1.2,0.6-2.1,1.7-2.8c0.9-0.6,2.1-0.9,3.4-0.9c1.3,0,2.3,0.1,3.1,0.2c-0.4-3.3-0.6-5.2-0.6-5.6
		c0-1.4,0.4-2.5,1.1-3.3c0.6-0.6,1.6-1.2,2.9-1.5c0.1,0,0.2-0.1,0.2-0.2C23.2,69.5,23.1,69.4,23,69.4z M19.7,81.7
		c-1-0.3-2-0.5-3.2-0.5c-1.3,0-2.3,0.2-3,0.6c-0.7,0.4-1,0.9-1,1.6c0,0.6,0.3,1.1,1,1.4c0.6,0.3,1.4,0.5,2.4,0.5
		c1.3,0,2.3-0.3,2.9-0.9C19.3,83.9,19.7,83,19.7,81.7z"/>
	<path class="st0" d="M61.2,84.2c1.5-0.5,2.7-1.3,3.6-2.7c0.8-1.1,1.1-2.2,1.1-3.3c0-2-0.7-3.5-2-4.6c-1-0.7-2.1-1.1-3.5-1.1
		c-2.8,0-5.6,1.2-8.3,3.6c-0.7,0.6-1.5,1.5-2.4,2.8c-0.2,0.3-0.5,0.4-0.8,0.4c-0.3,0-0.6-0.1-0.8-0.4c-0.2-0.2-0.3-0.5-0.3-0.8
		c0-0.4,0.2-0.8,0.7-1.3c4.9-5.2,9.2-10.2,12.7-14.9c0.1-0.1,0.1-0.2,0.1-0.3c0-0.1-0.1-0.1-0.2-0.1c-0.1,0-0.2,0-0.3,0.1
		c-1.9,0.6-3.8,1.3-5.6,2c-0.4,0.2-0.7,0.3-0.9,0.5c-0.4,0.3-0.6,0.5-0.9,0.5c-0.6,0-1.3-0.4-2-1.2c-0.6-0.8-0.9-1.5-0.9-2.1
		c0-0.4,0.1-0.6,0.3-0.6c0.2,0,0.4,0.2,0.6,0.5c0.6,0.7,1.1,1.1,1.7,1.1c0.5,0,1.1-0.1,2-0.3c1-0.2,2.6-0.7,4.7-1.3
		c0.3-0.1,0.6-0.3,0.9-0.6c0.2-0.2,0.5-0.3,0.7-0.3c0.4,0,1,0.3,1.7,0.8c0.8,0.5,1.2,1,1.2,1.5c0,0.4-0.2,0.6-0.7,0.7
		c-0.5,0.1-1.1,0.5-1.7,1.2c-0.2,0.2-3.2,3.5-9,10l0.1,0c2.6-1.8,5.1-2.7,7.3-2.7c2.8,0,4.9,0.8,6.3,2.5c1,1.2,1.5,2.7,1.5,4.4
		c0,2.6-1.1,4.7-3.3,6.2c-1.8,1.2-3.8,1.8-6.2,1.8c-2.2,0-3.8-0.4-5.1-1.2c-1-0.7-1.5-1.6-1.5-2.6c0-0.9,0.3-1.6,1-2.1
		c0.6-0.4,1.3-0.7,2.2-0.7c1.6,0,3,0.6,4.2,1.9C60.4,82.4,61,83.3,61.2,84.2z M59.3,84.5c-0.3-1.1-1-2-1.9-2.8c-0.8-0.7-1.6-1-2.3-1
		c-0.7,0-1.2,0.2-1.5,0.5c-0.3,0.3-0.4,0.6-0.4,1c0,0.6,0.4,1.2,1.2,1.7c0.9,0.5,2,0.7,3.5,0.7C58.6,84.7,59,84.6,59.3,84.5z"/>
	<path class="st0" d="M95.9,73.1c0,0.1,0,0.3-0.1,0.5c-0.9,2.8-1.5,5.2-2,7.1c-0.3,1.3-0.5,2.3-0.5,2.8c0,0.4,0,0.8,0,1
		c0,0.1,0,0.3,0.1,0.6c0,0.2,0,0.4,0,0.4c0,0.5-0.3,0.7-0.9,0.7c-0.6,0-1.1-0.6-1.6-1.8c-0.6-1.7-0.9-4.1-0.9-7.2
		c0-2.6,0.5-6.4,1.6-11.5c0.3-1.6,0.5-2.7,0.5-3.1c0-1.1-0.3-2-1-2.7c-0.2-0.2-0.2-0.4-0.2-0.5c0-0.2,0.2-0.3,0.5-0.3
		c0.2,0,0.5,0.1,0.8,0.4c0.5,0.4,1.1,1,1.6,1.8c0.4,0.6,0.6,1.1,0.6,1.6c0,0.4-0.1,0.7-0.2,1c-0.2,0.5-0.5,1.3-0.9,2.4
		c-0.6,1.6-1,3.6-1.4,5.9c-0.3,2-0.5,3.6-0.5,4.9c0,1.4,0.1,2.6,0.4,3.5c0.1,0.2,0.1,0.3,0.2,0.3s0.2-0.1,0.3-0.3
		c1.1-2.9,2-5.4,2.7-7.5c0.1-0.3,0.3-0.4,0.5-0.4C95.8,72.7,95.9,72.8,95.9,73.1z M112.1,62.5l-2.3,0c-3,0-5.9,0.6-8.7,1.8
		c-0.2,0.1-0.4,0.1-0.5,0.1c-0.2,0-0.3-0.1-0.3-0.3c0-0.2,0.2-0.4,0.5-0.6c3-2,6.3-3,9.9-3c1.7,0,2.5,0.4,2.5,1.2
		C113.2,62.2,112.9,62.5,112.1,62.5z M108.3,72.3c-1.4,0.3-2.8,0.4-4.1,0.4c-2.4,0-3.6-0.9-3.6-2.7c0-0.9,0.3-1.7,1-2.6
		c0.1-0.1,0.2-0.2,0.4-0.2c0.2,0,0.3,0.1,0.3,0.2c0,0.2-0.1,0.4-0.2,0.6c-0.3,0.5-0.4,1-0.4,1.6c0,1,0.6,1.5,1.9,1.5
		c1.5,0,3.1-0.2,4.7-0.6c0-0.9,0-1.9,0-2.8c0-0.5-0.1-0.8-0.2-1c-0.3-0.3-0.6-0.4-1.2-0.4c-0.3,0-0.4-0.1-0.4-0.3
		c0-0.4,0.4-0.7,1.3-0.7c0.5,0,1.1,0.1,1.6,0.4c0.5,0.3,0.8,0.6,0.8,0.9c0,0.2,0,0.4-0.1,0.7c-0.1,0.3-0.2,0.6-0.2,0.9
		c0,0.5-0.1,1.1-0.1,1.7c0.8-0.2,1.8-0.5,3.1-1.1c0.4-0.2,0.7-0.3,0.9-0.3c0.5,0,0.8,0.2,0.8,0.7c0,0.5-0.3,0.9-0.8,1.1
		c-1.1,0.6-2.5,1.1-4,1.5c0,1.8,0.1,4.3,0.3,7.6c2.4,0.8,4.2,1.7,5.5,2.6c0.6,0.4,0.9,1,0.9,1.5c0,0.3-0.1,0.6-0.3,0.7
		c-0.2,0.2-0.4,0.2-0.6,0.2c-0.4,0-0.8-0.2-1.2-0.6c-1.1-1.1-2.6-2.1-4.2-2.8c0,1.5-0.6,2.6-1.7,3.3c-0.8,0.5-1.9,0.8-3.2,0.8
		c-1.6,0-2.8-0.3-3.7-1c-0.7-0.5-1.1-1.2-1.1-2.1c0-1.3,0.7-2.2,2-2.8c0.9-0.4,2.1-0.6,3.4-0.6c1,0,1.9,0.1,2.5,0.2
		C108.4,77.6,108.3,75.3,108.3,72.3z M108.4,80.7c-1.1-0.4-2.3-0.5-3.6-0.5c-2.2,0-3.3,0.6-3.3,1.9c0,1.2,1.2,1.7,3.6,1.7
		C107.2,83.8,108.3,82.8,108.4,80.7z"/>
	<path class="st0" d="M144.3,72.5c-0.9-0.5-1.4-1.5-1.5-3.1c-0.1-1.7-0.3-4.1-0.4-7.3c0-0.7-0.2-1.1-0.5-1.3c-0.5-0.4-1-0.6-1.6-0.6
		c-0.1,0-0.2-0.1-0.2-0.2c0-0.2,0.2-0.4,0.5-0.6c0.3-0.1,0.6-0.2,0.9-0.2c0.8,0,1.7,0.4,2.7,1.2c0.5,0.4,0.7,0.8,0.7,1.1
		c0,0.2-0.1,0.5-0.4,0.8c-0.2,0.2-0.2,0.5-0.2,0.8c0,0.8,0,1.7,0,2.5c0,1.5,0.1,3.1,0.2,4.6c0.1,0.9,0.4,1.3,0.9,1.4
		c0,0,0.1,0,0.1,0c0.2,0,0.5-0.1,0.8-0.2c1.6-0.8,3.1-1.5,4.5-2.3c0.5-0.3,0.7-0.5,0.7-0.8c0-0.3-0.4-0.7-1.1-1.2
		c-0.2-0.1-0.3-0.3-0.3-0.4c0-0.2,0.2-0.3,0.6-0.3c0.9,0,1.7,0.5,2.7,1.4c0.6,0.7,0.9,1.2,0.9,1.6c0,0.4-0.4,0.7-1.1,1
		c-3.5,1.3-5.9,2.2-7.2,2.9c-2.6,1.3-4.4,2.4-5.4,3.3c-1.3,1.1-1.9,2.3-1.9,3.6c0,2.5,2.2,3.7,6.6,3.7c2.8,0,5.1-0.2,6.6-0.7
		c0.5-0.1,0.8-0.2,1.2-0.2c0.6,0,1.1,0.2,1.6,0.5c0.4,0.3,0.6,0.6,0.6,1c0,0.4-0.2,0.6-0.5,0.8c-0.3,0.1-0.8,0.3-1.5,0.4
		c-1.6,0.2-3.6,0.3-6.3,0.3c-3.2,0-5.6-0.4-7.2-1.2c-1.8-0.9-2.6-2.3-2.6-4.3C137.5,77.4,139.8,74.8,144.3,72.5z M154.7,61.3
		c0.2,0,0.3,0,0.3,0c1.1,0.4,1.9,0.8,2.6,1.4c1,0.8,1.5,1.6,1.5,2.3c0,0.7-0.3,1-0.9,1c-0.4,0-0.8-0.4-1.2-1.2c-0.5-1-1.4-2-2.6-2.8
		c-0.1-0.1-0.2-0.2-0.2-0.3C154.4,61.5,154.5,61.3,154.7,61.3z M157.7,59.2c0.1,0,0.3,0,0.5,0.1c0.9,0.2,1.7,0.6,2.5,1.2
		c1,0.7,1.6,1.5,1.6,2.2c0,0.3-0.1,0.5-0.3,0.7c-0.1,0.1-0.3,0.2-0.5,0.2c-0.4,0-0.8-0.3-1.2-0.9c-0.6-1.1-1.6-2-2.9-2.8
		c-0.1-0.1-0.1-0.2-0.1-0.4C157.3,59.3,157.4,59.2,157.7,59.2z"/>
	<path class="st0" d="M18.5,124.5c0.9-0.1,2.9-0.2,6.2-0.4c0.4,0,0.8-0.2,1.3-0.4c0.4-0.2,0.7-0.3,1.1-0.3c0.6,0,1.3,0.2,2,0.6
		c0.6,0.3,1,0.7,1,1.2c0,0.5-0.3,0.7-0.9,0.7c-0.2,0-0.8,0-1.8-0.1c-1,0-2-0.1-3.2-0.1c-1.8,0-3.7,0.1-5.8,0.2
		c-0.3,4.1-1.2,7.4-2.8,9.9c-1.5,2.3-3.7,4.3-6.6,5.8c-0.4,0.2-0.7,0.3-0.8,0.3c-0.3,0-0.4-0.2-0.4-0.5c0-0.1,0.2-0.3,0.5-0.5
		c2.8-1.9,4.9-4.2,6.2-6.9c1.1-2.2,1.7-4.9,1.8-8c-2.2,0.2-4.6,0.5-7.4,0.9c-0.9,0.2-1.6,0.3-1.9,0.5c-0.3,0.2-0.6,0.3-0.9,0.3
		c-0.7,0-1.4-0.4-2.2-1.3c-0.6-0.7-0.9-1.2-0.9-1.5c0-0.4,0.1-0.7,0.3-0.7c0.1,0,0.3,0.1,0.5,0.3c0.8,0.7,1.6,1.1,2.3,1.1
		c0.3,0,1.2-0.1,2.6-0.2c3.5-0.4,6-0.7,7.7-0.8c0-1,0-1.6,0-1.9c0-0.6-0.2-1-0.5-1.1c-0.3-0.2-0.7-0.3-1.4-0.5
		c-0.2-0.1-0.3-0.2-0.3-0.3c0-0.1,0.1-0.3,0.4-0.4c0.4-0.2,0.8-0.2,1.2-0.2c0.6,0,1.4,0.2,2.2,0.5c0.6,0.3,0.9,0.6,0.9,1
		c0,0.3-0.1,0.6-0.3,0.8c-0.1,0.2-0.2,0.4-0.2,0.6C18.5,123.9,18.5,124.4,18.5,124.5z M19.4,113.7c0.7,0,1.5,0.3,2.4,0.8
		c1,0.7,1.6,1.2,1.6,1.7c0,0.5-0.3,0.8-1,0.9c-0.5,0.1-0.8,0.2-1.1,0.3c-5,1.9-9.9,3.2-14.7,3.9c0,0-0.1,0-0.1,0
		c-0.3,0-0.4-0.2-0.4-0.5c0-0.2,0.2-0.3,0.7-0.5c5.4-1.4,9.6-2.9,12.7-4.6c0.4-0.2,0.6-0.4,0.6-0.5c0-0.3-0.3-0.6-1-0.9
		c-0.3-0.1-0.5-0.3-0.5-0.4C18.6,113.8,18.8,113.7,19.4,113.7z"/>
	<path class="st0" d="M47.7,127.1c2.9-0.8,5.3-1.5,7.2-2c0.3-0.1,0.6-0.3,0.9-0.5c0.3-0.3,0.5-0.4,0.7-0.4c0.4,0,1,0.3,1.6,0.9
		c0.7,0.6,1,1.1,1,1.4c0,0.4-0.2,0.6-0.7,0.6c-0.4,0-0.8,0.1-1,0.4c-1.9,2-3.8,3.7-5.6,5c-0.2,0.1-0.3,0.2-0.4,0.2
		c-0.2,0-0.3-0.1-0.3-0.3c0-0.1,0.1-0.3,0.2-0.4c1.9-1.9,3.5-3.8,4.8-5.7c0-0.1-0.1-0.2-0.2-0.2c-1.8,0.4-4.4,1.2-7.8,2.3
		c0,0,0.2,0.9,0.6,2.6c1,3.9,1.7,6.6,2.1,8c0.2,0.7,0.2,1.2,0.2,1.4c0,0.2-0.1,0.4-0.2,0.6c-0.1,0.2-0.3,0.3-0.5,0.3
		c-0.7,0-1.1-0.3-1.2-0.9c-1.1-5.1-1.7-8.1-1.9-9c-0.1-0.3-0.3-1.1-0.6-2.5c-2.2,0.7-3.8,1.2-4.8,1.6c-0.6,0.2-1,0.4-1.1,0.7
		c-0.1,0.2-0.4,0.3-0.6,0.3c-0.5,0-1.1-0.3-1.8-0.9c-0.7-0.7-1.1-1.3-1.1-1.8c0-0.5,0.1-0.7,0.3-0.7c0.1,0,0.3,0.1,0.4,0.3
		c0.5,0.6,1,0.9,1.4,0.9c0.5,0,1.2-0.1,1.9-0.3c1.8-0.5,3.4-1,4.9-1.5c-0.3-1.6-0.7-2.9-0.9-3.8c-0.2-0.8-0.4-1.2-0.6-1.4
		c-0.2-0.2-0.7-0.3-1.5-0.3c-0.3,0-0.4-0.1-0.4-0.2c0-0.2,0.2-0.4,0.6-0.7c0.4-0.2,0.7-0.3,1.1-0.3c0.5,0,1.2,0.3,2.2,0.8
		c0.6,0.3,0.9,0.6,0.9,0.9c0,0.2-0.1,0.4-0.2,0.6c-0.1,0.2-0.2,0.4-0.2,0.5c0,0.1,0,0.4,0.1,0.7C47.2,125,47.4,126,47.7,127.1z"/>
	<path class="st0" d="M68.4,119.5c-0.2-0.1-0.3-0.3-0.3-0.4c0-0.3,0.1-0.4,0.4-0.4c0.2,0,0.4,0,0.6,0.1c1.3,0.3,2.6,0.9,3.9,1.8
		c1.2,0.9,1.8,1.9,1.8,2.9c0,0.9-0.4,1.3-1.1,1.3c-0.5,0-1-0.3-1.3-1C71.3,121.9,70,120.4,68.4,119.5z M71.2,135.6
		c0.3,0,0.8-0.2,1.6-0.7c2.9-1.8,5.9-4.1,9.1-7c2.9-2.6,5.5-5.5,7.8-8.5c0.2-0.2,0.3-0.3,0.5-0.3c0.4,0,0.5,0.1,0.5,0.4
		c0,0.2-0.1,0.4-0.2,0.6c-1.9,3.1-4.4,6.2-7.6,9.3c-2.3,2.3-5.3,4.8-9,7.6c-0.5,0.3-0.8,0.7-0.9,0.9c-0.2,0.4-0.5,0.6-0.9,0.6
		c-0.6,0-1.3-0.4-2.3-1.3c-1-1-1.4-1.7-1.4-2.3c0-0.5,0.1-0.7,0.3-0.7c0.1,0,0.3,0.1,0.5,0.3C70.2,135.2,70.8,135.6,71.2,135.6z"/>
	<path class="st0" d="M111.5,128.2c-2.5,2.4-4.8,4.4-7,5.9c-1.6,1.2-3.5,2.3-5.5,3.4c-0.5,0.3-0.9,0.4-1,0.4c-0.3,0-0.4-0.2-0.4-0.5
		c0-0.2,0.1-0.3,0.3-0.5c3.4-2.1,6.9-4.8,10.3-8c2.5-2.3,4.8-4.8,6.9-7.5c0.1-0.1,0.1-0.2,0.1-0.2c0-0.1-0.1-0.2-0.2-0.2
		c0,0-0.1,0-0.1,0c-3.2,0.7-6.2,1.5-9.2,2.6c-0.6,0.2-0.9,0.3-1,0.4c-0.3,0.3-0.6,0.4-0.9,0.4c-0.5,0-1.2-0.4-1.9-1.3
		c-0.6-0.7-0.9-1.4-0.9-1.9c0-0.5,0.2-0.8,0.5-0.8c0.1,0,0.2,0.1,0.4,0.4c0.5,0.8,1.1,1.2,1.8,1.2c0.2,0,0.7-0.1,1.4-0.2
		c3.6-0.8,6.7-1.5,9.2-2.1c0.4-0.1,0.7-0.3,0.9-0.4c0.3-0.3,0.6-0.5,0.7-0.5c0.3,0,0.9,0.3,1.6,0.8c0.8,0.6,1.3,1.1,1.3,1.5
		c0,0.3-0.3,0.5-0.9,0.7c-0.4,0.1-0.7,0.3-1,0.6c-1.4,1.5-2.7,2.9-3.9,4.2c0.3,0.4,0.5,0.8,0.5,1.1l-0.1,0.9c0,0.3,0,0.8,0,1.6
		l0,3.8l0.1,7c0,0.9-0.3,1.4-0.9,1.4c-0.4,0-0.7-0.3-1-1c-0.3-0.6-0.4-1.2-0.4-1.8c0-0.3,0.1-0.6,0.2-1c0.2-0.4,0.2-1,0.2-1.9V128.2
		z M109.1,113.5c-0.3-0.2-0.4-0.3-0.4-0.5c0-0.2,0.1-0.4,0.4-0.4c0.5,0,1.1,0.2,1.9,0.5c0.7,0.3,1.4,0.6,1.9,1
		c1.1,0.8,1.6,1.6,1.6,2.4c0,0.9-0.4,1.3-1.1,1.3c-0.5,0-0.9-0.3-1.2-0.9C111.6,115.6,110.5,114.5,109.1,113.5z M116.4,128.4
		c-0.2-0.1-0.4-0.3-0.4-0.5c0-0.2,0.2-0.3,0.5-0.3c1,0,2.4,0.5,3.9,1.4c1.8,1,2.7,2.1,2.7,3.2c0,0.5-0.1,0.8-0.3,1.1
		c-0.2,0.2-0.4,0.3-0.7,0.3c-0.5,0-1-0.4-1.5-1.1C119.7,130.9,118.3,129.5,116.4,128.4z"/>
	<path class="st0" d="M139.3,123.9c0-0.5-0.1-0.8-0.4-1.1c-0.4-0.3-0.8-0.6-1.2-0.7c-0.3-0.1-0.5-0.3-0.5-0.4s0.1-0.3,0.3-0.4
		c0.2-0.1,0.3-0.2,0.5-0.2c0.8,0,1.7,0.4,2.8,1.1c0.9,0.6,1.4,1.2,1.4,1.8c0,0.3-0.1,0.5-0.4,0.8c-0.3,0.2-0.5,0.6-0.6,1.3
		c-0.7,2.3-1.8,4.6-3.4,6.9c-1.6,2.2-3.4,4-5.6,5.4c-0.2,0.1-0.4,0.2-0.5,0.2c-0.3,0-0.4-0.1-0.4-0.3c0-0.2,0.1-0.4,0.2-0.5
		c1.9-1.6,3.5-3.5,4.8-5.7c1.4-2.3,2.3-4.4,2.8-6.3C139.2,124.9,139.3,124.3,139.3,123.9z M145.5,122.3c0-1.1-0.1-1.8-0.2-2.2
		c-0.2-0.4-0.7-0.8-1.7-1.2c-0.2-0.1-0.3-0.2-0.3-0.3c0-0.2,0.1-0.3,0.3-0.4c0.2-0.1,0.4-0.2,0.7-0.2c0.6,0,1.5,0.3,2.5,0.9
		c0.9,0.5,1.3,1,1.3,1.5c0,0.3-0.1,0.6-0.4,0.8c-0.2,0.2-0.3,0.7-0.3,1.2c-0.1,4.5-0.2,8.2-0.2,10.9c0,0.2,0.1,0.3,0.2,0.3
		c0.1,0,0.2,0,0.5-0.1c4.2-1.8,8.3-4.4,12.5-7.9c0.2-0.2,0.4-0.2,0.4-0.2c0.3,0,0.5,0.1,0.5,0.4c0,0.1-0.1,0.3-0.2,0.4
		c-2.7,3.1-6.7,6.2-12.2,9.4c-0.3,0.2-0.5,0.4-0.7,0.7c-0.2,0.3-0.4,0.5-0.7,0.5c-0.3,0-0.8-0.3-1.4-1c-0.6-0.6-0.8-1.2-0.8-1.5
		c0-0.1,0.1-0.3,0.2-0.5c0.1-0.3,0.2-0.6,0.2-1C145.5,130.5,145.5,127,145.5,122.3z"/>
</g>
</svg>
